<svg width="512" height="512" viewBox="0 0 512 512" xmlns="http://www.w3.org/2000/svg">
  <defs>
    <linearGradient id="grad1" x1="0%" y1="0%" x2="100%" y2="100%">
      <stop offset="0%" style="stop-color:#0066cc;stop-opacity:1" />
      <stop offset="100%" style="stop-color:#004499;stop-opacity:1" />
    </linearGradient>
    <filter id="shadow">
      <feDropShadow dx="2" dy="2" stdDeviation="4" flood-opacity="0.3"/>
    </filter>
  </defs>
  
  <!-- Main Book Shape with Rounded Corners -->
  <rect x="96" y="128" width="320" height="256" rx="24" fill="url(#grad1)" filter="url(#shadow)"/>
  
  <!-- Book Pages (White with transparency) -->
  <rect x="112" y="144" width="288" height="224" rx="16" fill="white" opacity="0.95"/>
  
  <!-- Header Line -->
  <rect x="128" y="168" width="256" height="12" rx="6" fill="#0066cc"/>
  
  <!-- Content Lines -->
  <rect x="128" y="200" width="200" height="8" rx="4" fill="#666" opacity="0.7"/>
  <rect x="128" y="224" width="220" height="8" rx="4" fill="#666" opacity="0.7"/>
  <rect x="128" y="248" width="180" height="8" rx="4" fill="#666" opacity="0.7"/>
  <rect x="128" y="272" width="240" height="8" rx="4" fill="#666" opacity="0.7"/>
  <rect x="128" y="296" width="160" height="8" rx="4" fill="#666" opacity="0.7"/>
  
  <!-- Progress/Achievement Badge -->
  <circle cx="368" cy="180" r="28" fill="#00cc66" filter="url(#shadow)"/>
  <path d="M356 180 L364 188 L380 172" stroke="white" stroke-width="4" fill="none" stroke-linecap="round" stroke-linejoin="round"/>
  
  <!-- Bookmark -->
  <rect x="280" y="128" width="24" height="48" fill="#ff6b35"/>
  <path d="M280 176 L292 164 L304 176" fill="#ff6b35"/>
</svg>
